<?xml version="1.0" encoding="UTF-8" standalone="no"?>
<!-- Created with Inkscape (http://www.inkscape.org/) -->

<svg
   version="1.1"
   id="svg1"
   width="1428.941"
   height="139.94849"
   viewBox="0 0 1428.9411 139.94849"
   xml:space="preserve"
   xmlns:xlink="http://www.w3.org/1999/xlink"
   xmlns="http://www.w3.org/2000/svg"
   xmlns:svg="http://www.w3.org/2000/svg"><defs
     id="defs1"><clipPath
       clipPathUnits="userSpaceOnUse"
       id="clipPath1019-2"><path
         d="m -53.379601,11.077198 -41.705001,-72.437002 c -0.239,-0.362 -0.361,-0.725 -0.361,-1.207 v 0 c 0,-1.327 1.086,-2.411 2.411,-2.411 v 0 c 1.086,0 1.688,0.845 2.289,1.809 v 0 l 9.403,16.272 2.771,4.822 27.240001,47.1240016 27.117,-47.1240016 2.774,-4.822 9.402001,-16.272 c 0.603,-0.964 1.205,-1.809 2.4099998,-1.809 v 0 c 1.325,0 2.41,1.084 2.41,2.411 v 0 c 0,0.482 -0.122,0.845 -0.36,1.207 v 0 L -49.283601,11.077198 c -0.361,0.721 -1.203,1.083 -2.048,1.083 v 0 c -0.845,0 -1.687,-0.482 -2.048,-1.083"
         id="path1019-3" /></clipPath></defs><g
     id="g1"
     transform="translate(-555.52963,-650.02574)"><path
       id="path1010-8"
       d="m 684.76039,748.42269 -49.19838,-85.49212 -49.4179,85.49212 -5.02725,8.74642 -17.06105,29.52302 c -1.09035,1.74892 -2.18252,3.28195 -4.15278,3.28195 -2.40386,0 -4.3723,-1.96663 -4.3723,-4.37412 0,-0.87446 0.21952,-1.53303 0.65312,-2.18978 l 75.66261,-131.41762 c 0.65494,-1.09217 2.18252,-1.96663 3.71555,-1.96663 1.53303,0 3.06242,0.65856 3.71555,1.96663 l 75.6626,131.41762 c 0.4336,0.65675 0.65494,1.31532 0.65494,2.18978 0,2.40749 -1.97026,4.37412 -4.37412,4.37412 -2.18615,0 -3.27832,-1.53303 -4.3723,-3.28195 l -17.05742,-29.52302 z"
       style="fill:#ffffff;fill-opacity:1;fill-rule:nonzero;stroke:none;stroke-width:1.81423" /><path
       id="path1011-4"
       d="m 1667.379,691.57749 49.1984,85.49212 49.4179,-85.49212 5.0272,-8.74642 17.0611,-29.52302 c 1.0903,-1.74892 2.1825,-3.28195 4.1528,-3.28195 2.4038,0 4.3723,1.96663 4.3723,4.37412 0,0.87446 -0.2196,1.53303 -0.6532,2.18978 l -75.6626,131.41762 c -0.6549,1.09217 -2.1825,1.96663 -3.7155,1.96663 -1.533,0 -3.0606,-0.65856 -3.7156,-1.96663 L 1637.1992,656.59 c -0.4336,-0.65675 -0.6549,-1.31532 -0.6549,-2.18978 0,-2.40749 1.9702,-4.37412 4.3741,-4.37412 2.1862,0 3.2783,1.53303 4.3723,3.28195 l 17.0574,29.52302 z"
       style="fill:#13171c;fill-opacity:1;fill-rule:nonzero;stroke:none;stroke-width:1.81423" /><path
       id="path1012-8"
       d="m 816.15262,658.77325 v 67.79065 h 61.22675 c 18.80634,0 33.89532,-15.09443 33.89532,-33.89533 0,-18.585 -14.86946,-33.67943 -33.45809,-33.89532 z m -8.74642,-4.37412 c 0,-2.40748 1.96482,-4.3723 4.3723,-4.3723 h 66.0381 c 23.39635,0.21589 42.20451,19.24176 42.20451,42.64174 0,23.61588 -18.80816,42.41678 -42.20451,42.64174 h -61.66398 v 50.29055 c 0,2.40749 -1.96663,4.37231 -4.37412,4.37231 -2.40748,0 -4.3723,-1.96482 -4.3723,-4.37231 z"
       style="fill:#13171c;fill-opacity:1;fill-rule:nonzero;stroke:none;stroke-width:1.81423" /><path
       id="path1013-0"
       d="m 1016.2062,654.39986 c 0,-2.40749 1.9703,-4.37412 4.3741,-4.37412 h 109.333 c 2.4038,0 4.3741,1.96663 4.3741,4.37412 0,2.40749 -1.9703,4.37412 -4.3741,4.37412 h -104.9607 v 56.85263 h 83.0937 c 2.4039,0 4.3741,1.96663 4.3741,4.37412 0,2.40748 -1.9702,4.3723 -4.3741,4.3723 h -83.0937 v 56.85444 h 104.9607 c 2.4038,0 4.3741,1.96482 4.3741,4.37231 0,2.40748 -1.9703,4.37411 -4.3741,4.37411 h -109.333 c -2.4038,0 -4.3741,-1.96663 -4.3741,-4.37411 z"
       style="fill:#13171c;fill-opacity:1;fill-rule:nonzero;stroke:none;stroke-width:1.81423" /><path
       id="path1014-4"
       d="m 1239.2177,658.77325 v 67.79065 h 61.664 c 18.5886,-0.22497 33.4581,-15.09443 33.4581,-33.89533 0,-18.80997 -15.089,-33.89532 -33.8954,-33.89532 z m -8.7464,-4.37412 c 0,-2.40748 1.9648,-4.3723 4.3723,-4.3723 h 66.0381 c 23.3963,0.21589 42.2045,19.24176 42.2045,42.64174 0,23.61588 -18.8082,42.41678 -42.2045,42.64174 h -0.8745 l 46.7945,46.7909 c 1.0922,1.09217 1.749,2.19159 1.749,3.49965 0,2.40749 -1.9649,4.37231 -4.3723,4.37231 -1.5331,0 -2.6252,-0.87446 -3.4997,-1.74892 l -52.9176,-52.91394 h -48.5434 v 50.29055 c 0,2.40749 -1.9666,4.37231 -4.3741,4.37231 -2.4075,0 -4.3723,-1.96482 -4.3723,-4.37231 z"
       style="fill:#13171c;fill-opacity:1;fill-rule:nonzero;stroke:none;stroke-width:1.81423" /><path
       id="path1015-6"
       d="m 1501.5938,658.77325 h -61.2267 c -2.4075,0 -4.3742,-1.96663 -4.3742,-4.37412 0,-2.40748 1.9667,-4.3723 4.3742,-4.3723 h 131.1999 c 2.4075,0 4.3741,1.96482 4.3741,4.3723 0,2.40749 -1.9666,4.37412 -4.3741,4.37412 h -61.2268 v 126.82761 c 0,2.40749 -1.9648,4.37231 -4.3723,4.37231 -2.4075,0 -4.3741,-1.96482 -4.3741,-4.37231 z"
       style="fill:#13171c;fill-opacity:1;fill-rule:nonzero;stroke:none;stroke-width:1.81423" /><path
       id="path1016-0"
       d="m 1926.5257,781.22693 c 27.1155,0 49.1983,-6.78161 49.1983,-28.42178 0,-21.65106 -22.0828,-28.43086 -49.1983,-28.43086 -33.6794,0 -57.9484,-11.58751 -57.9484,-37.17907 0,-23.39092 24.269,-37.1682 57.9484,-37.1682 15.5226,0 34.9874,3.49783 47.6654,8.9623 2.4074,0.87447 4.1563,3.28195 3.2819,5.90715 -0.6585,1.74892 -3.0607,3.49784 -5.9053,2.40749 -12.8992,-5.03269 -26.0198,-8.53052 -45.042,-8.53052 -27.1155,0 -49.202,6.77978 -49.202,28.42178 0,21.65105 22.0865,28.43084 49.202,28.43084 33.6703,0 57.9447,11.58751 57.9447,37.17909 0,23.39091 -24.2744,37.1682 -57.9447,37.1682 h -6.5639 c -15.5244,0 -35.2034,-3.49785 -47.8867,-8.96232 -2.1862,-0.87445 -3.935,-3.06605 -3.0607,-5.90714 0.8745,-2.62338 3.282,-3.49785 5.4645,-2.62338 13.9951,5.46447 28.4309,8.74642 45.4829,8.74642 z"
       style="fill:#13171c;fill-opacity:1;fill-rule:nonzero;stroke:none;stroke-width:1.81423" /><path
       id="path1017-3"
       d="m 684.76039,748.42269 -49.19838,-85.49212 -49.4179,85.49212 -5.02725,8.74642 -17.06105,29.52302 c -1.09035,1.74892 -2.18252,3.28195 -4.15278,3.28195 -2.40386,0 -4.3723,-1.96663 -4.3723,-4.37412 0,-0.87446 0.21952,-1.53303 0.65312,-2.18978 l 75.66261,-131.41762 c 0.65494,-1.09217 2.18252,-1.96663 3.71555,-1.96663 1.53303,0 3.06242,0.65856 3.71555,1.96663 l 75.6626,131.41762 c 0.4336,0.65675 0.65494,1.31532 0.65494,2.18978 0,2.40749 -1.97026,4.37412 -4.37412,4.37412 -2.18615,0 -3.27832,-1.53303 -4.3723,-3.28195 l -17.05742,-29.52302 z"
       style="fill:#13171c;fill-opacity:1;fill-rule:nonzero;stroke:none;stroke-width:1.81423" /></g></svg>
