<svg xmlns="http://www.w3.org/2000/svg" width="136" height="18" viewBox="0 0 136 18" role="img" aria-hidden="true"><path fill="#0098ff" fill-rule="evenodd" d="M.55.536h4.57v3.111H.55zm0 4.537h4.57V17H.55zm7.19 0h4.257v1.943q.954-1.19 1.932-1.701.976-.511 2.38-.511 1.899 0 2.97 1.128 1.074 1.13 1.073 3.487V17H15.76v-6.559q0-1.122-.415-1.589c-.415-.467-.667-.466-1.168-.466q-.832 0-1.348.63-.517.627-.517 2.256V17h-4.57zm20.129 0h2.178V8.42H27.87V17h-4.582V8.42H21.58V5.073h1.707v-.539q0-.73.157-1.606c.157-.876.301-1.061.59-1.432s.692-.67 1.212-.898q.78-.342 2.286-.343 1.2 0 3.493.281L30.519 3.3a8.6 8.6 0 0 0-1.325-.135q-.618 0-.887.208c-.27.208-.307.357-.382.657q-.057.247-.056 1.044m2.608 5.997q0-2.729 1.842-4.497 1.842-1.77 4.975-1.77 3.583 0 5.413 2.078 1.472 1.674 1.472 4.122 0 2.751-1.825 4.509c-1.825 1.758-2.9 1.758-5.048 1.758q-2.876 0-4.65-1.46-2.178-1.809-2.179-4.74m4.582-.01q0 1.593.646 2.357t1.623.764q.989 0 1.623-.752.634-.753.634-2.415 0-1.55-.64-2.308t-1.583-.758q-1 0-1.651.77c-.651.77-.652 1.293-.652 2.341m11.054-5.987h4.268v1.741q.921-1.09 1.859-1.55t2.263-.46q1.426 0 2.257.505.831.506 1.359 1.505 1.078-1.168 1.965-1.59.888-.42 2.19-.42 1.92 0 2.999 1.14c1.079 1.14 1.078 1.948 1.078 3.565V17h-4.582v-6.794q0-.81-.315-1.202-.46-.618-1.145-.618-.81 0-1.303.584-.494.585-.494 1.876V17H53.93v-6.57q0-.786-.09-1.067-.146-.449-.505-.724a1.35 1.35 0 0 0-.843-.275q-.786 0-1.291.595t-.505 1.954V17h-4.583zm26.833 3.864-4.368-.46q.246-1.147.713-1.803c.467-.656.758-.818 1.342-1.14q.63-.348 1.73-.54 1.1-.19 2.38-.19 2.055 0 3.302.23t2.078.96q.584.505.92 1.432c.336.927.337 1.207.337 1.769v5.267q0 .841.107 1.32.107.477.466 1.218h-4.29q-.258-.46-.337-.702c-.079-.242-.105-.414-.157-.758q-.898.865-1.786 1.235-1.212.495-2.819.495-2.133 0-3.24-.989-1.106-.988-1.106-2.437 0-1.358.798-2.235.797-.876 2.942-1.302 2.572-.517 3.335-.725.765-.207 1.618-.544 0-.843-.349-1.18-.348-.336-1.224-.337-1.123 0-1.684.36-.438.28-.708 1.056m3.965 2.403q-.944.337-1.966.595-1.392.37-1.763.73-.382.37-.382.842 0 .54.377.882.376.342 1.106.342.763 0 1.42-.37.658-.371.932-.904c.274-.533.276-.818.276-1.387zm6.91-6.267h4.256v1.943q.954-1.19 1.932-1.701.977-.511 2.38-.511 1.899 0 2.97 1.128 1.073 1.13 1.073 3.487V17H91.84v-6.559q0-1.122-.415-1.589-.416-.466-1.168-.466-.832 0-1.348.63-.516.627-.517 2.256V17h-4.57zM99.03.536h4.57v3.111h-4.57zm0 4.537h4.57V17h-4.57zm11.357 3.864-4.369-.46q.248-1.147.714-1.803c.466-.656.758-.818 1.342-1.14q.628-.348 1.73-.54c1.101-.191 1.526-.19 2.38-.19q2.055 0 3.302.23 1.245.23 2.077.96.585.505.921 1.432t.337 1.769v5.267q0 .841.107 1.32.106.477.466 1.218h-4.29q-.258-.46-.337-.702c-.079-.242-.105-.414-.157-.758q-.899.865-1.786 1.235-1.212.495-2.819.495-2.133 0-3.24-.989c-1.107-.989-1.106-1.47-1.106-2.437q0-1.358.797-2.235c.797-.877 1.513-1.018 2.943-1.302q2.571-.517 3.335-.725c.764-.208 1.048-.32 1.617-.544q0-.843-.348-1.18t-1.224-.337q-1.123 0-1.684.36-.438.28-.708 1.056m3.964 2.403q-.943.337-1.965.595-1.392.37-1.763.73-.382.37-.382.842 0 .54.376.882c.376.342.62.342 1.107.342q.763 0 1.42-.37.657-.371.932-.904c.275-.533.275-.818.275-1.387zm6.91-10.804h4.672v8.49l3.414-3.953h5.627l-4.279 4.178L135.221 17h-5.155l-2.414-4.784-1.719 1.684V17h-4.672z"></path></svg>